<svg width="64px" height="64px" viewBox="-2.4 -2.4 28.80 28.80" id="Layer_1" data-name="Layer 1" xmlns="http://www.w3.org/2000/svg" fill="#ffffff" stroke="#ffffff" transform="rotate(0)matrix(1, 0, 0, 1, 0, 0)"><g id="SVGRepo_bgCarrier" stroke-width="0"></g><g id="SVGRepo_tracerCarrier" stroke-linecap="round" stroke-linejoin="round" stroke="#f00000" stroke-width="0.096"></g><g id="SVGRepo_iconCarrier"><defs><style>.cls-1{fill:none;stroke:#ffffff;stroke-miterlimit:10;stroke-width:1.2;}</style></defs><path class="cls-1" d="M17.07,20.61H9.79a2,2,0,0,1-2-2,2,2,0,0,1,2-2h1.87L5,9.86a2,2,0,0,1-.19-2.65,1.88,1.88,0,0,1,1.47-.68,1.84,1.84,0,0,1,1.35.55l4.06,4.06,4.08-3.06a1.91,1.91,0,0,1,2.5.18h0A17.18,17.18,0,0,1,22.42,15l.06.19"></path><path class="cls-1" d="M10.63,10.12A4.73,4.73,0,0,0,11,8.17,4.78,4.78,0,1,0,6.26,13a4.67,4.67,0,0,0,1.55-.26"></path></g></svg>