<svg width="64" height="64" viewBox="-2.4 -2.4 28.8 28.8" id="Layer_1" data-name="Layer 1" xmlns="http://www.w3.org/2000/svg" fill="#fff" stroke="#fff"><g id="SVGRepo_iconCarrier"><defs><style>.cls-1{fill:none;stroke:#fff;stroke-miterlimit:10;stroke-width:1.2}</style></defs><path class="cls-1" d="M17.07 20.61H9.79a2 2 0 01-2-2 2 2 0 012-2h1.87L5 9.86a2 2 0 01-.19-2.65 1.88 1.88 0 011.47-.68 1.84 1.84 0 011.35.55l4.06 4.06 4.08-3.06a1.91 1.91 0 012.5.18h0A17.18 17.18 0 0122.42 15l.06.19"/><path class="cls-1" d="M10.63 10.12A4.73 4.73 0 0011 8.17 4.78 4.78 0 106.26 13a4.67 4.67 0 001.55-.26"/></g></svg>