<svg fill="#fff" height="64" width="64" xmlns="http://www.w3.org/2000/svg" viewBox="0 0 367.633 367.633" stroke="#fff"><path d="M266.003 0H101.63C86.293 0 73.816 12.476 73.816 27.812v312.01c0 15.335 12.477 27.812 27.813 27.812h164.373c15.337 0 27.814-12.477 27.814-27.812V27.812C293.816 12.476 281.34 0 266.003 0zm-71.159 338.736a3.938 3.938 0 01-3.938 3.938h-14.18a3.938 3.938 0 01-3.938-3.938v-12.604a3.94 3.94 0 011.669-3.219l7.09-4.993a3.937 3.937 0 014.537 0l7.09 4.993a3.937 3.937 0 011.669 3.219v12.604zm65.888-38.22H106.9V42.299h153.832v258.217z"/></svg>